<?xml version="1.0" standalone="no"?><!DOCTYPE svg PUBLIC "-//W3C//DTD SVG 1.1//EN" "http://www.w3.org/Graphics/SVG/1.1/DTD/svg11.dtd"><svg class="icon" width="200px" height="200.00px" viewBox="0 0 1024 1024" version="1.1" xmlns="http://www.w3.org/2000/svg"><path d="M883.528205 661.661538l19.692308 68.266667c7.876923 28.882051-7.876923 57.764103-35.446154 65.641026l-409.6 118.153846c-28.882051 7.876923-57.764103-7.876923-65.641026-35.446154L375.466667 813.948718c24.94359-10.502564 40.697436-38.071795 31.507692-64.328205-6.564103-26.25641-34.133333-42.010256-60.389744-36.758975l-22.317948-76.143589c-7.876923-28.882051 7.876923-57.764103 35.446154-65.641026l409.6-118.153846c28.882051-7.876923 57.764103 7.876923 65.641025 35.446154l22.317949 76.14359c-24.94359 10.502564-40.697436 36.758974-31.507692 61.702564s31.507692 40.697436 57.764102 35.446153z" fill="#FFD3D7" /><path d="M907.158974 665.6l19.692308 68.266667c9.189744 32.820513-9.189744 64.328205-40.697436 72.205128l-447.671795 128.65641c-32.820513 9.189744-64.328205-9.189744-74.830769-40.697436L345.271795 827.076923c28.882051-11.815385 43.323077-42.010256 34.133333-70.892308-7.876923-28.882051-38.071795-47.261538-66.953846-42.010256l-24.94359-82.707692c-9.189744-32.820513 9.189744-64.328205 40.697436-72.205129l446.358975-128.65641c32.820513-9.189744 64.328205 9.189744 74.830769 40.697436l22.317949 82.707692c-28.882051 11.815385-43.323077 42.010256-34.133334 70.892308 10.502564 27.569231 38.071795 44.635897 69.579487 40.697436z" fill="#FFC937" /><path d="M485.74359 829.702564c-5.251282 0-10.502564-3.938462-11.815385-7.876923l-3.938461-11.815385c-1.312821-6.564103 1.312821-13.128205 7.876923-15.753846 6.564103-1.312821 13.128205 1.312821 15.753846 7.876923l3.938461 11.815385c1.312821 6.564103-1.312821 13.128205-7.876923 15.753846H485.74359zM468.676923 774.564103c-5.251282 0-10.502564-3.938462-11.815385-7.876924l-3.938461-11.815384c-1.312821-6.564103 1.312821-13.128205 7.876923-15.753846 6.564103-1.312821 13.128205 1.312821 15.753846 7.876923l3.938462 11.815384c1.312821 6.564103-1.312821 13.128205-7.876923 15.753847h-3.938462z m-14.441026-57.764103c-5.251282 0-10.502564-3.938462-11.815384-7.876923l-3.938462-11.815385c-1.312821-6.564103 1.312821-13.128205 7.876923-15.753846 6.564103-1.312821 13.128205 1.312821 15.753847 7.876923l3.938461 11.815385c1.312821 6.564103-1.312821 13.128205-7.876923 15.753846h-3.938462z m-17.066666-56.451282c-5.251282 0-10.502564-3.938462-11.815385-7.876923l-3.938461-11.815385c-1.312821-6.564103 1.312821-13.128205 7.876923-15.753846 6.564103-1.312821 13.128205 1.312821 15.753846 7.876923l3.938461 11.815385c1.312821 6.564103-1.312821 13.128205-7.876923 15.753846h-3.938461zM422.728205 603.897436c-5.251282 0-10.502564-3.938462-11.815384-7.876923l-3.938462-11.815385c-1.312821-6.564103 1.312821-13.128205 7.876923-15.753846 6.564103-1.312821 13.128205 1.312821 15.753846 7.876923l3.938462 11.815385c1.312821 6.564103-1.312821 13.128205-7.876923 15.753846-2.625641-1.312821-2.625641 0-3.938462 0z" fill="#DAE9FF" /><path d="M479.179487 831.015385c-5.251282 0-10.502564-3.938462-11.815384-7.876923l-3.938462-11.815385c-1.312821-6.564103 1.312821-13.128205 7.876923-15.753846 6.564103-1.312821 13.128205 1.312821 15.753846 7.876923l3.938462 11.815384c1.312821 6.564103-1.312821 13.128205-7.876923 15.753847h-3.938462z m-14.441025-55.138462c-5.251282 0-10.502564-3.938462-11.815385-7.876923l-3.938462-11.815385c-1.312821-6.564103 1.312821-13.128205 7.876923-15.753846 6.564103-1.312821 13.128205 1.312821 15.753847 7.876923l3.938461 11.815385c1.312821 6.564103-1.312821 13.128205-7.876923 15.753846-2.625641-1.312821-3.938462 0-3.938461 0z m-17.066667-57.764102c-5.251282 0-10.502564-3.938462-11.815385-7.876924l-3.938461-11.815384c-1.312821-6.564103 1.312821-13.128205 7.876923-15.753846 6.564103-1.312821 13.128205 1.312821 15.753846 7.876923l3.938461 11.815384c1.312821 6.564103-1.312821 13.128205-7.876923 15.753847h-3.938461z m-17.066667-56.451283c-5.251282 0-10.502564-3.938462-11.815384-7.876923l-1.312821-11.815384c-1.312821-6.564103 1.312821-13.128205 7.876923-15.753846 6.564103-1.312821 13.128205 1.312821 15.753846 7.876923l3.938462 11.815384c1.312821 6.564103-1.312821 13.128205-7.876923 15.753846h-6.564103z m-15.753846-55.138461c-5.251282 0-10.502564-3.938462-11.815385-7.876923l-3.938461-11.815385c-1.312821-6.564103 1.312821-13.128205 7.876923-15.753846 6.564103-1.312821 13.128205 1.312821 15.753846 7.876923l3.938462 11.815385c1.312821 6.564103-1.312821 13.128205-7.876923 15.753846h-3.938462z" fill="#FFFFFF" /><path d="M496.246154 624.902564c5.251282-13.128205 19.692308-28.882051 35.446154-31.507692 0 0 59.076923-18.379487 95.835897-28.882051l11.815385-3.938462c15.753846-1.312821 30.194872 7.876923 35.446154 23.630769l-1.312821-3.938461c3.938462 15.753846-5.251282 31.507692-19.692308 35.446154L538.25641 649.846154c-15.753846 5.251282-34.133333-3.938462-38.071795-18.379487-1.312821 0-3.938462-6.564103-3.938461-6.564103z m28.882051 85.333333c5.251282-13.128205 19.692308-28.882051 34.133333-31.507692l182.482052-52.51282c13.128205-3.938462 30.194872 3.938462 35.446154 17.066666l1.31282 3.938462c6.564103 15.753846 0 30.194872-15.753846 34.133333L571.076923 735.179487l-3.938461 1.312821c-15.753846 5.251282-34.133333-3.938462-42.010257-17.066667l-3.938461-5.251282c1.312821 1.312821 3.938462-3.938462 3.938461-3.938462z" fill="#DAE9FF" /><path d="M513.312821 596.020513l112.902564-31.507692c11.815385-3.938462 24.94359 3.938462 28.882051 15.753846 3.938462 11.815385-3.938462 24.94359-15.753846 28.882051l-112.902564 31.507692c-11.815385 3.938462-24.94359-3.938462-28.882052-15.753846-5.251282-14.441026 1.312821-24.94359 15.753847-28.882051z m24.943589 89.271795l202.174359-57.764103c11.815385-3.938462 24.94359 3.938462 28.882052 15.753846 3.938462 11.815385-3.938462 24.94359-15.753847 28.882052L551.384615 728.615385c-11.815385 3.938462-24.94359-3.938462-28.882051-15.753847-3.938462-13.128205 3.938462-24.94359 15.753846-27.56923z" fill="#FFFFFF" /><path d="M924.225641 420.102564l45.948718 95.835898c21.005128 42.010256 3.938462 93.210256-40.697436 114.215384L329.517949 924.225641c-42.010256 21.005128-93.210256 3.938462-114.215385-40.697436L169.353846 787.692308c36.758974-22.317949 49.887179-70.892308 30.194872-110.276923s-64.328205-57.764103-107.651282-43.323077l-52.512821-111.589744c-21.005128-42.010256-3.938462-93.210256 40.697436-114.215385L678.728205 114.215385c42.010256-21.005128 93.210256-3.938462 114.215385 40.697436l55.138461 112.902564c-36.758974 22.317949-49.887179 70.892308-30.194872 110.276923 19.692308 38.071795 65.641026 56.451282 106.338462 42.010256z" fill="#FF5000" /><path d="M384.65641 775.876923c-6.564103 0-11.815385-3.938462-15.753846-10.502564l-6.564102-13.128205c-3.938462-7.876923 0-18.379487 7.876923-22.317949 7.876923-3.938462 18.379487 0 22.317948 7.876923l6.564103 15.753846c3.938462 7.876923 0 18.379487-7.876923 22.317949h-6.564103z m-36.758974-76.14359c-6.564103 0-11.815385-3.938462-15.753846-10.502564l-6.564103-15.753846c-3.938462-7.876923 0-18.379487 7.876923-22.317949 7.876923-3.938462 18.379487 0 22.317949 7.876923l6.564103 15.753847c3.938462 7.876923 0 18.379487-7.876924 22.317948-1.312821 2.625641-2.625641 2.625641-6.564102 2.625641z m-35.446154-74.830769c-6.564103 0-11.815385-3.938462-15.753846-10.502564l-6.564103-15.753846c-3.938462-7.876923 0-18.379487 7.876923-22.317949s18.379487 0 22.317949 7.876923l6.564103 15.753846c3.938462 7.876923 0 18.379487-7.876923 22.317949-1.312821 2.625641-3.938462 2.625641-6.564103 2.625641zM275.692308 548.758974c-6.564103 0-11.815385-3.938462-15.753846-10.502564l-6.564103-15.753846c-3.938462-7.876923 0-18.379487 7.876923-22.317949 7.876923-3.938462 18.379487 0 22.317949 7.876923l6.564102 15.753847c3.938462 7.876923 0 18.379487-7.876923 22.317948-1.312821 2.625641-2.625641 2.625641-6.564102 2.625641z m-36.758975-74.830769c-6.564103 0-11.815385-3.938462-15.753846-10.502564l-6.564102-15.753846c-3.938462-7.876923 0-18.379487 7.876923-22.317949 7.876923-3.938462 18.379487 0 22.317948 7.876923l6.564103 15.753846c3.938462 7.876923 0 18.379487-7.876923 22.317949-1.312821 2.625641-2.625641 2.625641-6.564103 2.625641zM400.410256 439.794872L551.384615 366.276923c17.066667-7.876923 36.758974-1.312821 45.948718 15.753846 7.876923 17.066667 1.312821 36.758974-15.753846 45.948718l-150.974359 73.517949c-17.066667 7.876923-36.758974 1.312821-45.948718-15.753846-7.876923-17.066667 0-38.071795 15.753846-45.948718z m60.389744 120.779487l270.441026-132.594872c17.066667-7.876923 36.758974-1.312821 45.948718 15.753846 7.876923 17.066667 1.312821 36.758974-15.753847 45.948718l-270.441025 131.282052c-17.066667 7.876923-36.758974 1.312821-45.948718-15.753847s-1.312821-36.758974 15.753846-44.635897z" fill="#FFFFFF" /></svg>